<?xml version="1.0" encoding="utf-8"?><svg viewBox="0 0 448 512" xmlns="http://www.w3.org/2000/svg" xmlns:xlink="http://www.w3.org/1999/xlink"><style>:root>svg{display:none}:root>svg:target{display:block}</style><svg fill="none" viewBox="0 0 12 11" id="add" xmlns="http://www.w3.org/2000/svg"><path d="M11.36 6.56H6.992v4.296H4.976V6.56H.608V4.664h4.368V.344h2.016v4.32h4.368V6.56Z" fill="#fff"/></svg><svg fill="none" viewBox="0 0 16 10" id="arrow-down" xmlns="http://www.w3.org/2000/svg"><path d="M7.113 9.23.325 2.009a1.23 1.23 0 0 1 0-1.664 1.06 1.06 0 0 1 1.563 0l6.007 6.392L13.902.345a1.06 1.06 0 0 1 1.563 0 1.23 1.23 0 0 1 0 1.663L8.677 9.231c-.216.23-.5.344-.782.344a1.07 1.07 0 0 1-.782-.344Z" fill="#E8AA31"/></svg><svg fill="none" viewBox="0 0 12 8" id="arrow-down-gray" xmlns="http://www.w3.org/2000/svg"><path d="M5.31 6.892.242 1.5a.918.918 0 0 1 0-1.242.79.79 0 0 1 1.167 0L5.894 5.03 10.379.257a.791.791 0 0 1 1.167 0c.323.343.323.9 0 1.242L6.477 6.892a.798.798 0 0 1-.583.257.799.799 0 0 1-.584-.257Z" fill="#000" fill-opacity=".5"/></svg><svg fill="none" viewBox="0 0 16 16" id="arrow-left" xmlns="http://www.w3.org/2000/svg"><path fill-rule="evenodd" clip-rule="evenodd" d="m3.345 8.833 5.244 5.244-1.178 1.179L.155 8 7.41.744l1.178 1.179-5.244 5.244H15.5v1.666H3.345Z" fill="#fff"/></svg><svg fill="none" viewBox="0 0 16 16" id="arrow-left-yellow" xmlns="http://www.w3.org/2000/svg"><path fill-rule="evenodd" clip-rule="evenodd" d="m3.345 8.833 5.244 5.244-1.178 1.179L.155 8 7.41.744l1.178 1.179-5.244 5.244H15.5v1.666H3.345Z" fill="#E8AA31"/></svg><svg fill="none" viewBox="0 0 10 16" id="arrow-right" xmlns="http://www.w3.org/2000/svg"><path d="m9.23 8.676-7.222 6.788a1.23 1.23 0 0 1-1.664 0 1.06 1.06 0 0 1 0-1.563l6.392-6.007L.345 1.887a1.06 1.06 0 0 1 0-1.563 1.23 1.23 0 0 1 1.663 0l7.223 6.789c.23.216.344.498.344.781 0 .283-.114.566-.344.782Z" fill="#E8AA31"/></svg><svg fill="none" viewBox="0 0 9 16" id="arrow-right-white" xmlns="http://www.w3.org/2000/svg"><path d="m8.676 8.676-6.789 6.788a1.105 1.105 0 1 1-1.563-1.563L6.33 7.894.324 1.887A1.106 1.106 0 0 1 1.888.324l6.788 6.789a1.102 1.102 0 0 1 0 1.563Z" fill="#fff"/></svg><svg fill="none" viewBox="0 0 10 16" id="arrow-right-yellow" xmlns="http://www.w3.org/2000/svg"><path d="m9.23 8.676-7.222 6.788a1.23 1.23 0 0 1-1.664 0 1.06 1.06 0 0 1 0-1.563l6.392-6.007L.345 1.887a1.06 1.06 0 0 1 0-1.563 1.23 1.23 0 0 1 1.663 0l7.223 6.789c.23.216.344.498.344.781 0 .283-.114.566-.344.782Z" fill="#E8AA31"/></svg><svg fill="none" viewBox="0 0 17 8" id="arrow-top" xmlns="http://www.w3.org/2000/svg"><path d="M8.968 1.108 15.984 6.5c.447.343.447.899 0 1.242-.446.343-1.17.343-1.616 0L8.16 2.97 1.95 7.743c-.445.343-1.169.343-1.615 0-.447-.343-.447-.9 0-1.242l7.017-5.393C7.575.936 7.867.85 8.16.85c.292 0 .584.085.808.257Z" fill="#E8AA31"/></svg><svg viewBox="0 0 448 512" id="check-solid" xmlns="http://www.w3.org/2000/svg"><!--! Font Awesome Pro 6.4.0 by @fontawesome - https://fontawesome.com License - https://fontawesome.com/license (Commercial License) Copyright 2023 Fonticons, Inc.--><path d="M438.6 105.4c12.5 12.5 12.5 32.8 0 45.3l-256 256c-12.5 12.5-32.8 12.5-45.3 0l-128-128c-12.5-12.5-12.5-32.8 0-45.3s32.8-12.5 45.3 0L160 338.7l233.4-233.3c12.5-12.5 32.8-12.5 45.3 0z"/></svg><svg fill="none" viewBox="0 0 26 25" id="compare" xmlns="http://www.w3.org/2000/svg"><path d="m25.956 12.527-.022.012-3.73-9.284h1.702a.553.553 0 0 0 0-1.105h-10.4V.553a.553.553 0 0 0-1.106 0v1.591H2.006a.553.553 0 0 0 0 1.105H3.78L.044 12.528a.553.553 0 0 0-.044.204 4.595 4.595 0 1 0 9.19 0 .553.553 0 0 0-.044-.204l-3.73-9.284H12.4V20.33c-2.635.2-4.697 1.802-4.697 3.741 0 .306.248.553.553.553h9.394a.553.553 0 0 0 .553-.553c0-1.94-2.061-3.542-4.697-3.74V3.243h7.056l-3.708 9.284a.554.554 0 0 0-.044.204 4.595 4.595 0 1 0 9.19 0 .554.554 0 0 0-.044-.204ZM4.592 16.23a3.493 3.493 0 0 1-3.443-2.934h6.864a3.493 3.493 0 0 1-3.42 2.934Zm3.222-4.04H1.382l3.221-8.018 3.21 8.018Zm9.184 11.329H8.902c.41-1.188 2.095-2.106 4.046-2.106 1.95 0 3.641.918 4.05 2.106ZM21.38 4.178l3.21 8.012H18.16l3.221-8.012Zm0 12.052v.005a3.492 3.492 0 0 1-3.42-2.94h6.863a3.493 3.493 0 0 1-3.443 2.935Z" fill="#000"/></svg><svg fill="none" viewBox="0 0 18 13" id="email" xmlns="http://www.w3.org/2000/svg"><path d="m1 1 7.4 5.55a1 1 0 0 0 1.2 0L17 1" stroke="#fff"/><rect x=".5" y=".5" width="17" height="12" rx="1.5" stroke="#fff"/></svg><svg fill="none" viewBox="0 0 22 29" id="human" xmlns="http://www.w3.org/2000/svg"><path d="M10.594 15.312h.167c1.524-.029 2.757-.619 3.667-1.747 2.003-2.487 1.67-6.748 1.634-7.155-.13-3.053-1.441-4.514-2.523-5.196-.807-.51-1.748-.785-2.8-.808h-.088c-.577 0-1.711.104-2.799.785-1.092.682-2.424 2.143-2.554 5.219-.036.407-.37 4.668 1.634 7.155.905 1.128 2.138 1.718 3.662 1.747ZM6.687 6.553c0-.017.005-.034.005-.046.172-4.107 2.82-4.548 3.954-4.548h.063c1.404.034 3.792.664 3.953 4.548 0 .017 0 .035.006.046.005.04.369 3.935-1.285 5.986-.656.814-1.53 1.215-2.68 1.226h-.052c-1.144-.011-2.023-.412-2.674-1.226-1.649-2.04-1.295-5.952-1.29-5.986Z" fill="#fff"/><path d="M21.368 22.38v-.017c0-.046-.005-.091-.005-.143-.031-1.134-.099-3.786-2.357-4.634-.015-.006-.036-.012-.052-.017-2.346-.66-4.297-2.148-4.318-2.166-.317-.246-.754-.16-.978.19-.224.349-.146.83.172 1.076.088.07 2.159 1.656 4.75 2.39 1.212.474 1.347 1.9 1.384 3.207 0 .052 0 .097.005.143.005.516-.026 1.312-.11 1.77-.842.527-4.146 2.349-9.172 2.349-5.004 0-8.329-1.827-9.177-2.354-.083-.459-.12-1.255-.11-1.77 0-.046.006-.092.006-.144.037-1.306.172-2.732 1.384-3.208 2.59-.733 4.661-2.325 4.75-2.388.317-.247.395-.728.172-1.077-.224-.35-.661-.436-.979-.19-.02.018-1.96 1.507-4.318 2.166a.613.613 0 0 0-.052.017C.105 18.434.038 21.086.007 22.214c0 .052 0 .098-.006.144v.017c-.005.298-.01 1.827.266 2.595a.723.723 0 0 0 .27.36c.156.115 3.897 2.739 10.156 2.739 6.258 0 9.999-2.63 10.155-2.738a.755.755 0 0 0 .27-.361c.26-.762.255-2.292.25-2.59Z" fill="#fff"/></svg><svg fill="none" viewBox="0 0 28 27" id="like" xmlns="http://www.w3.org/2000/svg"><path d="M20.1 0A7.917 7.917 0 0 0 14 2.872 7.917 7.917 0 0 0 7.9 0C3.544 0 0 3.525 0 7.857c0 3.392 2.034 7.316 6.045 11.663 3.087 3.345 6.445 5.934 7.4 6.649l.555.414.554-.414c.956-.715 4.314-3.304 7.4-6.649C25.967 15.174 28 11.25 28 7.857 28 3.525 24.456 0 20.1 0Zm.495 18.278c-2.54 2.751-5.27 4.975-6.595 6-1.325-1.025-4.056-3.249-6.595-6-3.637-3.94-5.559-7.544-5.559-10.42 0-3.32 2.716-6.022 6.054-6.022a6.063 6.063 0 0 1 5.293 3.108L14 6.392l.807-1.448A6.063 6.063 0 0 1 20.1 1.836c3.338 0 6.054 2.701 6.054 6.021 0 2.877-1.922 6.48-5.56 10.421Z" fill="#000"/></svg><svg fill="#E23535" viewBox="0 0 28 27" id="like-red" xmlns="http://www.w3.org/2000/svg"><path d="M20.1 0A7.917 7.917 0 0 0 14 2.872 7.917 7.917 0 0 0 7.9 0C3.544 0 0 3.525 0 7.857c0 3.392 2.034 7.316 6.045 11.663 3.087 3.345 6.445 5.934 7.4 6.649l.555.414.554-.414c.956-.715 4.314-3.304 7.4-6.649C25.967 15.174 28 11.25 28 7.857 28 3.525 24.456 0 20.1 0Zm.495 18.278c-2.54 2.751-5.27 4.975-6.595 6-1.325-1.025-4.056-3.249-6.595-6-3.637-3.94-5.559-7.544-5.559-10.42 0-3.32 2.716-6.022 6.054-6.022a6.063 6.063 0 0 1 5.293 3.108L14 6.392l.807-1.448A6.063 6.063 0 0 1 20.1 1.836c3.338 0 6.054 2.701 6.054 6.021 0 2.877-1.922 6.48-5.56 10.421Z"/></svg><svg fill="none" viewBox="0 0 28 27" id="like-white" xmlns="http://www.w3.org/2000/svg"><path d="M20.1 0A7.917 7.917 0 0 0 14 2.872 7.917 7.917 0 0 0 7.9 0C3.544 0 0 3.525 0 7.857c0 3.392 2.034 7.316 6.045 11.663 3.087 3.345 6.445 5.934 7.4 6.649l.555.414.554-.414c.956-.715 4.314-3.304 7.4-6.649C25.967 15.174 28 11.25 28 7.857 28 3.525 24.456 0 20.1 0Zm.495 18.278c-2.54 2.751-5.27 4.975-6.595 6-1.325-1.025-4.056-3.249-6.595-6-3.637-3.94-5.559-7.544-5.559-10.42 0-3.32 2.716-6.022 6.054-6.022a6.063 6.063 0 0 1 5.293 3.108L14 6.392l.807-1.448A6.063 6.063 0 0 1 20.1 1.836c3.338 0 6.054 2.701 6.054 6.021 0 2.877-1.922 6.48-5.56 10.421Z" fill="#fff"/></svg><svg fill="none" viewBox="0 0 28 25" id="like-yellow" xmlns="http://www.w3.org/2000/svg"><path d="M20.1 0c-2.383 0-4.614 1.009-6.1 2.7C12.514 1.008 10.283 0 7.9 0 3.544 0 0 3.313 0 7.385c0 3.188 2.034 6.877 6.045 10.962 3.087 3.144 6.445 5.578 7.4 6.249l.555.39.554-.39c.956-.671 4.314-3.105 7.4-6.249C25.967 14.262 28 10.574 28 7.385 28 3.313 24.456 0 20.1 0Zm.495 17.18c-2.54 2.586-5.27 4.676-6.595 5.64-1.325-.964-4.056-3.054-6.595-5.64-3.637-3.704-5.559-7.091-5.559-9.795 0-3.12 2.716-5.66 6.054-5.66 2.196 0 4.224 1.12 5.293 2.922L14 6.008l.807-1.361c1.069-1.802 3.097-2.921 5.293-2.921 3.338 0 6.054 2.538 6.054 5.659 0 2.704-1.922 6.091-5.56 9.795Z" fill="#E8AA31"/></svg><svg fill="none" viewBox="0 0 17 25" id="location" xmlns="http://www.w3.org/2000/svg"><path d="M8.5 0C3.813 0 0 3.85 0 8.584c0 1.6.439 3.16 1.269 4.514L8.016 24.08c.13.21.357.338.602.338h.006a.707.707 0 0 0 .602-.348L15.8 12.983A8.64 8.64 0 0 0 17 8.584C17 3.851 13.187 0 8.5 0Zm6.085 12.248-5.978 10.08-6.134-9.984a7.197 7.197 0 0 1-1.066-3.76c0-3.944 3.187-7.163 7.093-7.163s7.088 3.219 7.088 7.163a7.2 7.2 0 0 1-1.003 3.664Z" fill="#000"/><path d="M8.496 3.617c-2.603 0-4.722 2.029-4.722 4.522 0 2.477 2.084 4.522 4.722 4.522 2.671 0 4.723-2.072 4.723-4.522 0-2.493-2.119-4.522-4.723-4.522Zm0 7.547c-1.745 0-3.158-1.359-3.158-3.025 0-1.662 1.423-3.024 3.158-3.024 1.736 0 3.154 1.362 3.154 3.024 0 1.642-1.38 3.025-3.154 3.025Z" fill="#000"/></svg><svg fill="none" viewBox="0 0 11 17" id="location-white" xmlns="http://www.w3.org/2000/svg"><path d="M5.5 0C2.467 0 0 2.6 0 5.797c0 1.08.284 2.134.821 3.049l4.366 7.416a.454.454 0 0 0 .39.228h.003a.454.454 0 0 0 .39-.234l4.254-7.488A6.029 6.029 0 0 0 11 5.798C11 2.6 8.533 0 5.5 0Zm3.938 8.272-3.869 6.807L1.6 8.337a5.02 5.02 0 0 1-.69-2.54C.91 3.133 2.974.96 5.5.96c2.527 0 4.586 2.173 4.586 4.837 0 .874-.226 1.73-.648 2.475Z" fill="#fff"/><path d="M5.5 2.443a3.058 3.058 0 0 0-3.055 3.054A3.05 3.05 0 0 0 5.5 8.551c1.728 0 3.056-1.4 3.056-3.054A3.058 3.058 0 0 0 5.5 2.443Zm0 5.097a2.045 2.045 0 0 1-2.044-2.043A2.05 2.05 0 0 1 5.5 3.455c1.123 0 2.04.92 2.04 2.042A2.04 2.04 0 0 1 5.5 7.54Z" fill="#fff"/></svg><svg fill="none" viewBox="0 0 7 3" id="off" xmlns="http://www.w3.org/2000/svg"><path d="M.368.416h6.456v1.992H.368V.416Z" fill="#fff"/></svg><svg fill="none" viewBox="0 0 15 16" id="phone" xmlns="http://www.w3.org/2000/svg"><path d="M14.614 11.68 12.75 9.71a1.271 1.271 0 0 0-1.865 0l-.848.895a.963.963 0 0 1-1.412 0L4.95 6.724a1.096 1.096 0 0 1 0-1.491l.847-.895c.512-.54.52-1.42 0-1.969L3.933.407A1.271 1.271 0 0 0 2.07.406l-.68.71c-1.853 1.958-1.853 5.143 0 7.1l5.822 6.148c1.858 1.962 4.866 1.962 6.724 0l.678-.716a1.449 1.449 0 0 0 0-1.968ZM2.69 1.063c.172-.18.45-.18.622 0l1.865 1.963a.482.482 0 0 1 0 .656l-.311.328L2.38 1.387l.31-.324Zm5.143 12.645-5.82-6.149C.577 6.045.498 3.668 1.77 2.054l2.477 2.615A2.061 2.061 0 0 0 4.33 7.38l3.674 3.882c.705.744 1.83.775 2.568.086l2.478 2.616c-1.524 1.34-3.771 1.269-5.216-.256Zm6.16-.716-.311.328-2.486-2.625.31-.328c.172-.18.45-.18.622 0l1.865 1.969a.483.483 0 0 1 0 .656Z" fill="#fff"/></svg><svg fill="none" viewBox="0 0 10 10" id="plus" xmlns="http://www.w3.org/2000/svg"><path d="M9.52 6H5.98v3.5H3.84V6H.3V4h3.54V.5h2.14V4h3.54v2Z" fill="#fff"/></svg><svg fill="none" viewBox="0 0 13 12" id="search" xmlns="http://www.w3.org/2000/svg"><circle cx="4.5" cy="4.5" r="4" stroke="#000" stroke-opacity=".5"/><path transform="matrix(.7099 .7043 -.7099 .7043 7 7)" stroke="#000" stroke-opacity=".5" d="M0-.5h6.557"/></svg><svg fill="none" viewBox="0 0 32 34" id="shop" xmlns="http://www.w3.org/2000/svg"><path d="M7.13 7.769h22.582a1 1 0 0 1 .969 1.248l-1.9 7.434a3 3 0 0 1-2.907 2.256H9.025M0 1.5h4.652a2 2 0 0 1 1.975 1.685l3.02 18.971a2 2 0 0 0 1.975 1.686h16.581M15.769 30.266c0 1.302-1.01 2.31-2.2 2.31-1.188 0-2.199-1.008-2.199-2.31 0-1.303 1.01-2.31 2.2-2.31 1.188 0 2.199 1.007 2.199 2.31ZM28.746 30.266c0 1.302-1.01 2.31-2.2 2.31-1.188 0-2.199-1.008-2.199-2.31 0-1.303 1.01-2.31 2.2-2.31 1.188 0 2.199 1.007 2.199 2.31Z" stroke="#000" stroke-width="1.5"/></svg><svg fill="none" viewBox="0 0 19 19" id="shop-white" xmlns="http://www.w3.org/2000/svg"><path d="M4.14 4.421h12.552a1 1 0 0 1 .965 1.263l-.68 2.495a3 3 0 0 1-2.894 2.212H5.241M0 1h2.003a2 2 0 0 1 1.971 1.666l1.501 8.861a2 2 0 0 0 1.972 1.666h8.929M8.841 16.7c0 .49-.413.92-.962.92-.55 0-.963-.43-.963-.92 0-.491.413-.92.963-.92s.962.429.962.92ZM16.377 16.7c0 .49-.413.92-.963.92s-.962-.43-.962-.92c0-.491.413-.92.962-.92.55 0 .963.429.963.92Z" stroke="#fff" stroke-width="1.5"/></svg><svg fill="none" viewBox="0 0 22 20" id="star" xmlns="http://www.w3.org/2000/svg"><path d="m11 0 2.47 7.6h7.992l-6.466 4.698 2.47 7.601L11 15.202l-6.466 4.697 2.47-7.6L.538 7.6H8.53L11 0Z" fill="#E8AA31"/></svg><svg fill="none" viewBox="0 0 16 16" id="time" xmlns="http://www.w3.org/2000/svg"><circle cx="8" cy="8" r="7.5" stroke="#fff"/><rect width="1" height="5" rx=".5" transform="matrix(-1 0 0 1 8 4)" fill="#fff"/><rect width="1" height="4" rx=".5" transform="matrix(0 1 1 0 7 8)" fill="#fff"/></svg></svg>